<?xml version="1.0" standalone="no"?>
<!DOCTYPE svg PUBLIC "-//W3C//DTD SVG 20010904//EN"
 "http://www.w3.org/TR/2001/REC-SVG-20010904/DTD/svg10.dtd">
<svg version="1.0" xmlns="http://www.w3.org/2000/svg"
 width="1005.000000pt" height="293.000000pt" viewBox="0 0 1005.000000 293.000000"
 preserveAspectRatio="xMidYMid meet">

<g transform="translate(0.000000,293.000000) scale(0.100000,-0.100000)"
fill="#000000" stroke="none">
<path d="M1 2288 c1 -575 2 -635 15 -563 34 205 136 443 258 605 80 106 226
251 331 330 91 67 256 156 361 193 65 23 226 61 299 70 17 2 -261 5 -617 6
l-648 1 1 -642z"/>
<path d="M1720 2915 c190 -30 391 -110 559 -223 108 -72 293 -250 377 -362
114 -154 210 -363 248 -547 39 -181 39 -455 0 -636 -88 -422 -389 -804 -789
-1002 -139 -69 -258 -108 -395 -130 -75 -11 23 -13 805 -14 885 0 890 0 853
19 -54 29 -83 82 -83 155 0 57 15 94 268 676 l268 616 -264 609 c-145 335
-267 622 -270 638 -13 74 39 171 108 202 25 11 -110 13 -870 13 -790 -1 -890
-3 -815 -14z"/>
<path d="M3582 2910 c20 -11 45 -32 56 -47 28 -40 568 -1288 583 -1346 6 -26
9 -64 6 -85 -3 -20 -104 -266 -226 -546 -122 -279 -221 -510 -221 -512 0 -2
89 -4 199 -4 l198 0 237 546 c131 300 236 554 233 563 -3 9 -121 282 -262 606
-282 647 -288 662 -247 741 23 45 56 79 92 93 17 7 -84 10 -330 10 l-355 0 37
-19z"/>
<path d="M4404 2907 c22 -12 47 -33 57 -47 34 -45 1141 -2603 1146 -2648 10
-77 -40 -166 -112 -198 -25 -11 53 -13 505 -14 526 0 534 0 505 19 -40 24 -71
60 -84 94 -7 19 -11 241 -11 673 l0 645 -275 633 c-244 562 -275 638 -275 685
0 28 6 64 14 79 15 29 59 73 91 90 15 9 -44 11 -235 11 l-255 0 38 -20 c20
-11 49 -38 65 -61 22 -34 27 -53 27 -102 0 -57 -12 -87 -165 -438 -91 -208
-167 -378 -170 -378 -3 0 -51 107 -107 237 l-102 237 95 221 c96 221 124 266
179 291 26 11 -44 13 -470 13 l-500 1 39 -23z"/>
<path d="M6972 2908 c47 -27 68 -68 229 -440 68 -158 127 -284 130 -280 4 4
69 149 144 322 75 173 145 329 156 347 11 17 39 41 62 52 l42 21 -400 0 -400
0 37 -22z"/>
<path d="M7882 2910 c64 -34 106 -119 94 -191 -7 -43 -466 -1110 -494 -1148
-30 -40 -80 -61 -150 -61 -77 0 -122 18 -154 61 -14 19 -116 245 -228 504
-111 259 -206 473 -209 478 -4 4 -96 6 -203 5 l-196 -3 202 -466 c112 -256
211 -488 220 -514 14 -43 16 -116 16 -627 l0 -578 180 0 180 0 0 293 c0 262 2
296 19 332 21 46 54 79 94 94 40 16 123 14 156 -3 42 -22 89 -81 101 -126 7
-28 10 -171 8 -433 -3 -383 -3 -393 -25 -434 -21 -38 -58 -73 -93 -86 -8 -3
201 -6 465 -6 451 -1 478 0 447 16 -47 23 -80 71 -92 133 -14 72 -14 2558 0
2630 12 62 49 116 94 136 27 12 0 13 -219 13 l-250 0 37 -19z"/>
<path d="M9228 2913 c18 -9 45 -32 60 -51 l27 -35 3 -981 c2 -713 -1 -988 -9
-1008 -17 -41 -83 -96 -124 -104 -93 -17 -175 19 -216 96 -18 33 -19 76 -19
882 l0 848 -180 0 -180 0 0 -1095 0 -1095 659 0 c443 0 669 -4 688 -11 34 -13
70 -44 94 -84 19 -29 19 -1 19 1313 l0 1342 -427 0 c-403 0 -426 -1 -395 -17z"/>
<path d="M1294 2545 c-345 -53 -653 -281 -813 -601 -138 -275 -144 -641 -16
-929 98 -219 331 -453 549 -549 191 -85 407 -113 616 -81 241 36 430 132 606
309 153 152 244 313 296 524 32 125 32 369 0 494 -33 133 -76 236 -141 334
-249 379 -663 567 -1097 499z m355 -365 c132 -32 230 -89 337 -195 76 -76 98
-105 138 -185 56 -114 76 -201 76 -335 0 -134 -20 -221 -76 -335 -40 -81 -61
-109 -138 -185 -152 -149 -309 -215 -519 -215 -255 0 -473 114 -616 323 -136
199 -161 492 -60 715 92 205 278 360 494 413 100 25 258 24 364 -1z"/>
<path d="M1384 1816 c-98 -24 -196 -102 -243 -194 -46 -90 -44 -227 3 -320 29
-56 106 -132 162 -160 181 -91 403 -8 490 183 39 84 39 195 2 277 -50 108
-146 188 -257 214 -67 16 -90 16 -157 0z"/>
<path d="M1 643 l-1 -643 648 1 c356 1 634 4 617 6 -318 40 -612 188 -850 429
-210 213 -351 484 -399 769 -13 72 -14 12 -15 -562z"/>
<path d="M4672 539 c-171 -395 -197 -448 -233 -481 -21 -20 -56 -41 -77 -46
-26 -7 121 -10 488 -11 l524 -1 -44 23 c-24 12 -52 33 -62 47 -14 19 -313 694
-392 884 -11 28 -20 11 -204 -415z"/>
<path d="M10025 84 c-10 -19 -37 -46 -59 -59 l-41 -25 63 0 62 0 0 60 c0 33
-1 60 -3 60 -1 0 -11 -16 -22 -36z"/>
</g>
</svg>
