<?xml version="1.0" standalone="no"?>
<!DOCTYPE svg PUBLIC "-//W3C//DTD SVG 20010904//EN"
 "http://www.w3.org/TR/2001/REC-SVG-20010904/DTD/svg10.dtd">
<svg version="1.0" xmlns="http://www.w3.org/2000/svg"
 width="1786.000000pt" height="861.000000pt" viewBox="0 0 1786.000000 861.000000"
 preserveAspectRatio="xMidYMid meet">

<g transform="translate(0.000000,861.000000) scale(0.100000,-0.100000)"
fill="#000000" stroke="none">
<path d="M1 4638 c0 -3890 1 -3971 19 -3888 10 47 32 123 48 170 16 47 444
1047 951 2223 l921 2138 0 619 0 619 -55 11 c-82 17 -171 66 -234 129 -159
160 -195 385 -93 586 31 62 141 172 208 207 112 60 70 58 1232 58 1181 0 1145
2 1259 -66 231 -139 313 -408 198 -653 -61 -128 -192 -232 -330 -261 l-55 -11
0 -619 0 -618 929 -2165 c511 -1190 940 -2197 954 -2238 54 -157 72 -337 46
-461 -43 -208 -211 -360 -444 -403 -58 -11 1023 -13 6118 -14 l6187 -1 0 1293
c0 1276 0 1292 -19 1261 -11 -18 -36 -45 -57 -60 l-37 -29 -776 -3 c-427 -2
-791 0 -809 3 -38 7 -96 55 -120 99 -16 29 -17 129 -17 1366 l0 1335 23 40
c13 22 39 52 59 65 l37 25 400 3 c221 2 420 0 444 -3 47 -7 103 -49 128 -96
12 -24 14 -171 14 -999 0 -954 0 -971 -20 -1010 -31 -61 -90 -95 -164 -95 -75
0 -125 28 -161 89 l-25 43 0 846 0 847 -180 0 -180 0 0 -1090 0 -1090 629 0
c379 0 649 -4 681 -10 62 -12 110 -45 133 -92 15 -31 17 179 17 2920 l0 2952
-6847 -1 c-5467 -1 -6838 -3 -6798 -13 115 -29 206 -103 256 -210 141 -302
-143 -626 -462 -526 -219 68 -328 317 -230 526 50 107 135 177 254 209 45 12
-212 14 -1990 14 l-2043 1 1 -3972z m5439 3602 c208 -61 351 -254 351 -477 1
-275 -197 -489 -471 -509 -329 -25 -597 283 -529 608 31 146 136 281 273 349
123 61 236 69 376 29z m630 -1251 c190 -51 353 -185 441 -364 55 -113 73 -190
73 -315 0 -198 -63 -349 -204 -491 -141 -142 -266 -198 -462 -206 -143 -7
-235 11 -346 67 -150 76 -249 176 -322 325 -51 103 -70 187 -70 306 0 285 170
541 435 652 52 22 94 32 205 51 46 8 175 -5 250 -25z m3512 -1619 c283 -59
521 -191 738 -410 201 -203 335 -446 395 -720 22 -103 31 -391 16 -514 -36
-280 -157 -545 -351 -765 -222 -252 -497 -411 -825 -478 -135 -27 -454 -24
-587 5 -197 43 -346 105 -497 206 -344 231 -566 558 -643 951 -28 144 -30 401
-4 550 50 284 182 538 390 754 243 251 534 399 867 441 118 14 388 4 501 -20z
m1793 11 c22 -10 50 -29 62 -42 27 -30 569 -1272 590 -1353 8 -33 13 -73 10
-90 -3 -17 -103 -256 -222 -531 -119 -275 -219 -506 -222 -512 -4 -10 39 -13
194 -13 l200 0 12 28 c7 15 114 260 238 545 l225 518 -266 613 c-235 542 -266
619 -266 665 0 84 39 145 113 176 93 39 199 -2 247 -95 10 -19 145 -327 300
-685 155 -357 404 -929 553 -1270 258 -590 271 -623 271 -682 1 -53 -4 -68
-29 -104 -39 -54 -94 -83 -160 -83 -61 0 -128 33 -154 74 -9 16 -102 225 -206
465 -104 239 -192 431 -196 427 -4 -4 -91 -200 -193 -436 -102 -236 -193 -440
-202 -454 -9 -13 -41 -36 -72 -50 l-57 -27 -440 -3 c-242 -2 -455 0 -473 3
-43 8 -108 67 -123 112 -24 72 -11 107 264 741 l266 613 -264 608 c-145 334
-267 624 -270 644 -9 47 17 126 53 160 59 56 145 72 217 38z m1930 0 c75 -34
122 -115 112 -193 -5 -40 -326 -788 -338 -788 -3 0 -52 106 -108 235 l-102
235 92 212 c51 117 103 228 117 247 48 65 148 88 227 52z m1462 0 c25 -12 51
-35 66 -58 14 -21 87 -183 163 -360 124 -288 140 -319 151 -300 6 13 73 164
148 337 75 173 147 326 159 339 29 33 94 61 141 61 115 0 210 -110 190 -219
-8 -42 -459 -1090 -490 -1135 -70 -106 -268 -97 -325 14 -11 21 -108 242 -216
492 -107 249 -199 456 -203 461 -4 4 -95 6 -203 5 l-195 -3 194 -445 c106
-245 204 -476 218 -513 l25 -68 0 -575 0 -574 180 0 180 0 0 292 c0 277 1 294
21 336 32 65 86 97 165 97 53 0 69 -4 105 -30 23 -16 52 -48 63 -70 20 -39 21
-54 21 -445 0 -223 -3 -417 -8 -432 -10 -38 -65 -98 -104 -114 -25 -11 -121
-14 -443 -14 -390 0 -413 1 -450 20 -21 11 -51 36 -67 57 l-28 36 -3 661 -2
661 -276 634 -276 634 4 62 c5 76 38 127 102 156 38 17 73 19 496 19 426 0
458 -2 497 -19z"/>
<path d="M5195 8077 c-64 -21 -97 -42 -142 -89 -124 -128 -126 -332 -5 -456
74 -75 128 -97 242 -97 83 0 101 4 145 27 62 32 129 103 158 166 32 69 30 198
-3 267 -31 64 -101 134 -164 164 -61 28 -173 37 -231 18z"/>
<path d="M5770 6830 c-68 -14 -182 -74 -241 -128 -137 -123 -202 -316 -165
-492 89 -423 605 -573 898 -261 100 105 148 224 148 364 0 221 -144 423 -355
498 -68 24 -213 34 -285 19z"/>
<path d="M9105 5013 c-66 -9 -188 -45 -264 -77 -166 -70 -355 -224 -464 -377
-163 -231 -229 -525 -182 -815 67 -415 383 -760 803 -876 108 -30 419 -33 532
-4 215 54 373 148 535 317 178 186 269 383 296 639 26 249 -35 501 -172 708
-54 82 -184 219 -268 282 -127 96 -284 165 -444 195 -74 14 -294 19 -372 8z
m383 -376 c120 -35 205 -87 308 -191 77 -77 98 -107 137 -186 104 -212 104
-447 0 -660 -39 -82 -59 -108 -142 -191 -79 -78 -112 -103 -181 -137 -121 -60
-192 -76 -335 -76 -141 0 -224 18 -327 69 -192 97 -338 273 -388 471 -14 55
-20 110 -20 194 0 84 6 139 20 194 69 273 313 491 595 536 88 13 244 3 333
-23z"/>
<path d="M9173 4276 c-104 -34 -186 -106 -231 -205 -22 -47 -27 -70 -27 -141
0 -71 5 -94 27 -142 35 -76 104 -148 175 -184 52 -26 68 -29 153 -29 82 0 103
4 152 27 69 32 137 98 175 170 26 48 28 62 28 158 0 94 -3 110 -26 155 -34 63
-125 150 -186 177 -60 27 -180 34 -240 14z"/>
<path d="M4029 8407 c-66 -35 -102 -93 -107 -171 -3 -46 0 -72 13 -97 82 -163
298 -163 380 0 27 53 17 149 -20 203 -40 55 -103 88 -170 88 -35 0 -66 -8 -96
-23z"/>
<path d="M1918 7234 c-57 -17 -106 -64 -138 -129 -19 -38 -22 -58 -18 -109 8
-97 51 -159 138 -200 45 -21 52 -21 1075 -24 731 -2 1045 0 1082 8 189 41 253
266 114 401 -33 32 -62 49 -94 57 -33 9 -325 12 -1079 11 -876 0 -1040 -3
-1080 -15z"/>
<path d="M2198 5858 l-3 -653 -934 -2165 c-513 -1191 -947 -2205 -964 -2255
-27 -81 -31 -103 -31 -215 -1 -118 0 -127 26 -171 31 -52 83 -90 159 -116 51
-17 171 -18 2544 -18 2009 0 2501 3 2547 13 200 46 259 239 161 529 -14 43
-446 1056 -959 2251 l-934 2174 0 639 0 639 -805 0 -805 0 -2 -652z m355 -792
c46 -19 78 -58 84 -103 7 -52 -94 -307 -135 -340 -79 -65 -192 -21 -209 82 -5
31 24 135 47 170 4 6 15 33 25 60 26 74 51 111 88 129 40 19 59 20 100 2z
m-236 -613 c42 -20 73 -66 73 -110 0 -17 -65 -195 -144 -395 -79 -200 -167
-422 -195 -495 -61 -155 -85 -183 -158 -183 -78 0 -133 51 -133 124 0 45 372
990 404 1025 23 26 71 50 99 51 11 0 35 -8 54 -17z"/>
<path d="M1 228 l-1 -228 258 1 c239 1 253 2 192 14 -226 45 -380 182 -434
385 -14 53 -15 46 -15 -172z"/>
</g>
</svg>
